# xmcd
#
# Track frame offsets: 
#        150
#        14951
#        27935
#        44775
#        56860
#        76802
#        95170
#        108390
#        122382
#        135710
#        150937
#        172812
#        188117
#        200734
#        215692
#
# Disc length: 3011 seconds
#
# Revision: 0
# Processed by: cddbd v1.5.2PL0 Copyright (c) Steve Scherf et al.
# Submitted via: ExactAudioCopy v1.0b1
#
DISCID=d50bc10f
DTITLE=Crystal Gayle - Someday
DYEAR=1995
DGENRE=Country
TTITLE0=Anchor Deep
TTITLE1=Diamonds From Dust
TTITLE2=My Old Friend
TTITLE3=He’ll Be There
TTITLE4=I Saw The Light – Medley
TTITLE5=Someday
TTITLE6=Ageless Dancer
TTITLE7=Where Dear Friends Never Part
TTITLE8=Would You Believe
TTITLE9=I Know, I Know
TTITLE10=I Believe.Medley
TTITLE11=Ready for the Times to Get Better
TTITLE12=Crazy
TTITLE13=For the Good Times
TTITLE14=Silver Threads and Golden Needless
EXTD=Studio album by Crystal Gayle \nReleased 1995 \nRecorded Reflecti
EXTD=ons Studio, Quad Magnum Studio, Sound Emporium \nGenre Country \n
EXTD=Length 37:14 \nLabel Intersound Records \nProducer Crystal Gayle 
EXTD=and Bobby Wood \n
EXTT0=
EXTT1=
EXTT2=
EXTT3=
EXTT4=
EXTT5=
EXTT6=
EXTT7=
EXTT8=
EXTT9=
EXTT10=
EXTT11=
EXTT12=
EXTT13=
EXTT14=
PLAYORDER=
